Coordinates
version=1
nRows=27
nColumns=12
inDegrees=yes

Units are S.I. units (second, meters, Newtons, ...)
Angles are in degrees

endheader
time	SC_y	SC_z	SC_x	AC_y	AC_z	AC_x	GH_y	GH_z	GH_yy	EL_x	PS_y
       0.0              -46.28          16.18          46.73          67.04        -0.5085         0.8285         -76.47          45.97         -172.7          14.23           51.1
   0.02353              -46.28          16.19          46.72          67.03        -0.5105         0.8284         -76.46          45.97         -172.6          14.25          51.11
   0.04707              -46.28          16.19          46.72          67.03        -0.5125         0.8283         -76.44          45.98         -172.6          14.26          51.11
    0.0706              -46.28          16.19          46.71          67.02        -0.5147         0.8282         -76.42          45.99         -172.6          14.28          51.12
   0.09413              -46.28          16.19          46.71          67.02        -0.5171         0.8281          -76.4          45.99         -172.6          14.29          51.13
    0.1177              -46.28          16.19           46.7          67.02        -0.5196          0.828         -76.38           46.0         -172.5          14.31          51.14
    0.1412              -46.28          16.19          46.69          67.01        -0.5222         0.8278         -76.36          46.01         -172.5          14.33          51.16
    0.1647              -46.28           16.2          46.68           67.0        -0.5251         0.8277         -76.33          46.02         -172.4          14.35          51.17
    0.1883              -46.28           16.2          46.68           67.0        -0.5281         0.8276         -76.31          46.02         -172.4          14.37          51.18
    0.2118              -46.28           16.2          46.67          66.99        -0.5314         0.8274         -76.28          46.03         -172.4           14.4          51.19
    0.2353              -46.28           16.2          46.66          66.99        -0.5349         0.8273         -76.25          46.04         -172.3          14.42          51.21
    0.2589              -46.28          16.21          46.65          66.98        -0.5387         0.8271         -76.22          46.05         -172.3          14.45          51.23
    0.2824              -46.29          16.21          46.64          66.97        -0.5428         0.8269         -76.18          46.06         -172.2          14.48          51.24
    0.3059              -46.29          16.21          46.63          66.96        -0.5472         0.8267         -76.15          46.08         -172.1          14.51          51.26
    0.3295              -46.29          16.21          46.62          66.95        -0.5519         0.8265          -76.1          46.09         -172.1          14.54          51.28
     0.353              -46.29          16.22           46.6          66.94        -0.5571         0.8262         -76.06           46.1         -172.0          14.58           51.3
    0.3765              -46.29          16.22          46.59          66.93        -0.5627          0.826         -76.01          46.12         -171.9          14.62          51.33
    0.4001              -46.29          16.23          46.57          66.92        -0.5688         0.8257         -75.96          46.14         -171.8          14.66          51.35
    0.4236              -46.29          16.23          46.56          66.91        -0.5755         0.8254          -75.9          46.16         -171.7          14.71          51.38
    0.4471              -46.29          16.24          46.54           66.9        -0.5828         0.8251         -75.84          46.18         -171.6          14.76          51.41
    0.4707              -46.29          16.24          46.52          66.88        -0.5908         0.8247         -75.77           46.2         -171.5          14.82          51.45
    0.4942               -46.3          16.25          46.49          66.86        -0.5997         0.8243          -75.7          46.22         -171.4          14.88          51.48
    0.5177               -46.3          16.25          46.47          66.85        -0.6094         0.8239         -75.62          46.25         -171.3          14.95          51.52
    0.5413               -46.3          16.26          46.44          66.83        -0.6202         0.8234         -75.53          46.28         -171.1          15.03          51.57
    0.5648               -46.3          16.27          46.41           66.8        -0.6323         0.8228         -75.42          46.31         -170.9          15.11          51.62
    0.5883               -46.3          16.28          46.38          66.78        -0.6457         0.8222         -75.31          46.35         -170.8          15.21          51.68
    0.6119              -46.31          16.29          46.34          66.75        -0.6607         0.8215         -75.18          46.39         -170.5          15.32          51.74
